first trial
nRows=29
nColumns=38

# SIMM Motion File Header:
name Sujet_01_velo_80.mvnx
datacolumns 38
datarows 29
otherdata 1
range 4.1000 4.5670
endheader
time pelvis_tilt  pelvis_list  pelvis_rotation  pelvis_tx  pelvis_ty  pelvis_tz  hip_flexion_r  hip_adduction_r  hip_rotation_r  knee_angle_r  ankle_angle_r  subtalar_angle_r  mtp_angle_r  hip_flexion_l  hip_adduction_l  hip_rotation_l  knee_angle_l  ankle_angle_l  subtalar_angle_l  mtp_angle_l  lumbar_extension  lumbar_bending  lumbar_rotation  arm_flex_r  arm_add_r  arm_rot_r  elbow_flex_r  pro_sup_r  wrist_flex_r  wrist_dev_r  arm_flex_l  arm_add_l  arm_rot_l  elbow_flex_l  pro_sup_l  wrist_flex_l  wrist_dev_l
4.1000	-9.4896	-0.6897	-20.9465	0.0000	1.2500	-0.0000	80.8383	-12.1009	2.0025	80.4395	0.9157	-14.1517	0.0000	49.4979	-15.7657	-15.6479	65.1554	-16.1674	17.8060	0.0000	-22.2761	0.0982	5.3544	96.8420	-15.7920	46.5857	11.6893	111.0750	-34.5404	-2.2977	89.1086	-16.9397	54.6221	10.9300	111.3226	-27.5632	1.9195	
4.1170	-9.3199	-0.4653	-20.7686	0.0000	1.2500	-0.0000	77.7729	-12.5492	0.4622	75.9533	0.1914	-13.3613	-0.0000	51.7579	-15.7782	-15.0344	69.8634	-16.0983	18.3926	-0.0000	-22.3110	0.0605	5.2307	96.6972	-15.7228	46.6753	11.4311	110.9447	-34.7195	-2.4064	89.0856	-17.0753	54.6721	10.8089	111.3056	-27.4472	1.9023	
4.1330	-9.1178	-0.2645	-20.4737	0.0000	1.2500	-0.0000	74.2237	-13.0363	-1.3643	71.1313	-0.8830	-12.3650	-0.0000	54.1845	-15.7121	-14.5063	74.6413	-15.9633	19.0031	0.0000	-22.3276	0.0520	5.0655	96.4523	-15.7057	46.7429	11.1451	110.8993	-34.9129	-2.5922	88.9700	-17.2115	54.7244	10.7252	111.2646	-27.3475	1.9083	
4.1500	-8.9378	-0.0602	-20.0546	0.0000	1.2500	-0.0000	70.4580	-13.4989	-3.2361	66.3009	-2.1033	-11.5935	-0.0000	56.8057	-15.6000	-13.8676	79.2636	-15.7860	19.4540	-0.0000	-22.3125	0.0648	4.8562	96.2492	-15.7621	46.7562	10.7690	110.9962	-35.2163	-2.9162	88.8242	-17.3016	54.7404	10.6890	111.2868	-27.2544	1.9254	
4.1670	-8.7895	0.1538	-19.4709	0.0000	1.2500	-0.0000	66.4458	-13.9500	-5.1910	61.5204	-3.2815	-11.2897	-0.0000	59.6572	-15.4229	-13.0910	83.7192	-15.5740	19.6833	-0.0000	-22.2569	0.1011	4.5914	96.1288	-15.9195	46.6205	10.2858	111.3183	-35.6785	-3.4129	88.6297	-17.3268	54.7134	10.7325	111.4056	-27.1791	1.9485	
4.1830	-8.6618	0.3710	-18.7628	0.0000	1.2500	-0.0000	62.2173	-14.3282	-7.2271	56.7392	-4.5930	-11.2146	-0.0000	62.6987	-15.1647	-12.2340	87.9918	-15.3390	19.7645	0.0000	-22.1697	0.1569	4.2821	96.0507	-16.1508	46.4310	9.7129	111.7839	-36.2553	-4.0517	88.4050	-17.3061	54.6499	10.8234	111.5876	-27.1106	1.9823	
4.2000	-8.5784	0.6016	-18.0436	0.0000	1.2500	-0.0000	58.1420	-14.5463	-9.0069	52.1248	-6.3721	-11.0751	-0.0000	65.8503	-14.8514	-11.2187	91.8158	-15.1196	19.7247	-0.0000	-22.0640	0.2147	3.9595	96.0347	-16.3954	46.4416	9.0398	112.2029	-36.9034	-4.7959	88.2686	-17.2486	54.5315	10.8741	111.8183	-27.0055	2.0286	
4.2170	-8.5632	0.8632	-17.3193	0.0000	1.2500	-0.0000	54.2603	-14.6308	-10.4257	47.5585	-8.9034	-10.6735	-0.0000	69.1673	-14.4813	-9.9094	95.1031	-14.9949	19.5565	0.0000	-21.9306	0.2632	3.6245	96.1094	-16.6621	46.8043	8.2054	112.5185	-37.6464	-5.7046	88.2871	-17.1458	54.3567	10.8552	112.0979	-26.8392	2.0914	
4.2330	-8.5914	1.1405	-16.5828	0.0000	1.2500	-0.0000	50.5379	-14.6259	-11.5639	43.1584	-11.9054	-10.2005	0.0000	72.5938	-14.0207	-8.4590	97.9171	-14.8874	19.2728	-0.0000	-21.7786	0.3131	3.2762	96.2456	-16.9395	47.3688	7.2705	112.7878	-38.4636	-6.7165	88.3942	-17.0061	54.1274	10.7950	112.4256	-26.6366	2.1666	
4.2500	-8.6169	1.3934	-15.9285	0.0000	1.2500	-0.0000	47.2336	-14.5524	-12.3256	39.4446	-14.8644	-9.9372	-0.0000	75.8851	-13.4847	-7.1955	100.2222	-14.5961	18.9297	0.0000	-21.6488	0.3823	2.9444	96.3751	-17.1373	47.9334	6.4066	112.9898	-39.2392	-7.6120	88.5087	-16.8636	53.8303	10.6934	112.7848	-26.4294	2.2440	
4.2670	-8.6246	1.5938	-15.3728	0.0000	1.2500	-0.0000	44.4054	-14.4651	-12.5021	36.5291	-17.8297	-10.0461	-0.0000	79.0346	-12.8882	-6.1968	102.0209	-13.9962	18.5689	-0.0000	-21.5525	0.4902	2.6326	96.4801	-17.2088	48.4681	5.6309	113.0977	-39.9490	-8.3397	88.6166	-16.7108	53.4143	10.5240	113.2281	-26.2205	2.3186	
4.2830	-8.6318	1.7697	-14.8995	0.0000	1.2500	-0.0000	41.9851	-14.4009	-12.2797	34.2949	-20.7564	-10.3288	-0.0000	82.0469	-12.2573	-5.3693	103.3181	-13.1981	18.1339	-0.0000	-21.4774	0.6191	2.3374	96.5771	-17.2012	49.0007	4.9246	113.1362	-40.6127	-8.9502	88.7335	-16.5557	52.9309	10.3152	113.7031	-26.0069	2.3959	
4.3000	-8.6424	1.9632	-14.5548	0.0000	1.2500	-0.0000	40.0478	-14.3396	-12.1451	32.9251	-22.9849	-10.5630	-0.0000	84.6997	-11.6682	-4.7518	104.0862	-12.3484	17.5299	-0.0000	-21.4292	0.7314	2.0784	96.6506	-17.1682	49.4149	4.4061	113.1630	-41.1773	-9.3776	88.8212	-16.4563	52.5200	10.1496	114.0354	-25.8112	2.4813	
4.3170	-8.6563	2.2238	-14.3732	0.0000	1.2500	-0.0000	38.6190	-14.2737	-12.3328	32.4976	-24.2438	-10.6723	-0.0000	86.9745	-11.1489	-4.3533	104.3364	-11.3951	16.6103	0.0000	-21.4160	0.8033	1.8695	96.6605	-17.1123	49.6344	4.1703	113.2024	-41.6195	-9.5507	88.8538	-16.4214	52.1992	10.0441	114.1609	-25.6403	2.5804	
4.3330	-8.6747	2.5021	-14.3202	0.0000	1.2500	-0.0000	37.6787	-14.2113	-12.5964	32.9396	-24.7968	-10.7862	-0.0000	88.9017	-10.7110	-4.1215	104.0685	-10.3448	15.4939	-0.0000	-21.4301	0.8598	1.6971	96.6482	-17.0327	49.7354	4.1235	113.2317	-41.9600	-9.5398	88.8552	-16.4420	51.9503	9.9812	114.1438	-25.4875	2.6874	
4.3500	-8.7036	2.6934	-14.3373	0.0000	1.2500	-0.0000	37.2374	-14.1334	-12.6989	34.2162	-24.7921	-11.0121	0.0000	90.3360	-10.4028	-3.9919	103.2375	-9.4710	14.5186	0.0000	-21.4541	0.9362	1.5399	96.7219	-16.9774	49.8315	4.1017	113.2384	-42.2121	-9.4906	88.8610	-16.5497	51.8587	9.9908	114.0020	-25.3555	2.7904	
4.3670	-8.7605	2.7670	-14.4302	0.0000	1.2500	-0.0000	37.3546	-14.0161	-12.6057	36.3947	-24.2041	-11.4084	0.0000	91.2557	-10.2529	-3.9158	101.7766	-8.9188	13.8071	0.0000	-21.4864	1.0441	1.3878	96.9668	-16.9561	49.9449	4.0611	113.2238	-42.3765	-9.4334	88.8771	-16.7912	52.0085	10.1300	113.6810	-25.2430	2.8885	
4.3830	-8.8281	2.7535	-14.5934	0.0000	1.2500	-0.0000	37.9691	-13.8819	-12.3510	39.4068	-23.0695	-11.9133	-0.0000	91.6851	-10.2312	-3.9237	99.7529	-8.5884	13.2731	0.0000	-21.5296	1.1719	1.2512	97.2984	-16.9577	50.0542	4.0452	113.1865	-42.4528	-9.3380	88.8979	-17.1199	52.3157	10.3419	113.2350	-25.1512	2.9821	
4.4000	-8.8589	2.6391	-14.7526	0.0000	1.2500	-0.0000	38.9099	-13.7789	-11.8028	43.0172	-21.6295	-12.4312	0.0000	91.5451	-10.2896	-4.0779	97.3145	-8.4320	12.9740	-0.0000	-21.5727	1.3210	1.1390	97.5699	-16.9986	50.2084	4.0199	113.1099	-42.4524	-9.2589	88.9418	-17.4261	52.6146	10.4856	112.8447	-25.0868	3.0609	
4.4170	-8.8399	2.3847	-14.8653	0.0000	1.2500	-0.0000	40.1603	-13.6882	-10.8125	47.3095	-19.7559	-13.0036	-0.0000	90.8005	-10.4097	-4.3953	94.4629	-8.4622	12.9418	-0.0000	-21.6146	1.5044	1.0565	97.7521	-17.1177	50.4681	3.9624	112.9306	-42.3709	-9.2226	89.0535	-17.6588	52.8792	10.5010	112.5903	-25.0677	3.1182	
4.4330	-8.7834	2.0298	-14.9735	0.0000	1.2500	-0.0000	41.7414	-13.5999	-9.5362	52.1942	-17.5638	-13.5800	-0.0000	89.4853	-10.6069	-4.8669	91.1861	-8.6835	13.1597	-0.0000	-21.6574	1.7087	0.9984	97.8750	-17.2765	50.7732	3.8953	112.7118	-42.2126	-9.2022	89.1880	-17.8690	53.1360	10.4467	112.3916	-25.0757	3.1612	
4.4500	-8.6787	1.6797	-15.1303	0.0000	1.2500	-0.0000	43.5412	-13.5821	-8.2915	57.1853	-15.6618	-13.9155	-0.0000	87.6232	-10.8773	-5.5224	87.6101	-9.0330	13.6019	-0.0000	-21.6950	1.8950	0.9579	97.8801	-17.3769	50.9902	3.8522	112.6262	-42.0025	-9.1736	89.2275	-18.1007	53.2968	10.3591	112.1894	-25.0632	3.2005	
4.4670	-8.5056	1.3533	-15.3425	0.0000	1.2500	-0.0000	45.5433	-13.6737	-7.1569	62.2152	-14.3090	-13.8792	-0.0000	85.1547	-11.2154	-6.4372	83.7098	-9.5643	14.3720	0.0000	-21.7280	2.0563	0.9272	97.6831	-17.3734	51.0453	3.8569	112.7576	-41.7497	-9.1368	89.1352	-18.3570	53.3084	10.2129	111.9633	-24.9924	3.2508	
4.4830	-8.2834	1.0326	-15.6022	0.0000	1.2500	-0.0000	47.7708	-13.8226	-6.0478	67.3605	-13.2475	-13.6020	0.0000	82.1329	-11.5894	-7.5637	79.5024	-10.2246	15.3463	0.0000	-21.7557	2.1997	0.9136	97.3673	-17.3125	51.0114	3.8855	113.0219	-41.4455	-9.0939	88.9469	-18.6344	53.2220	10.0342	111.7335	-24.9013	3.2976	
4.5000	-8.0617	0.7673	-15.9402	0.0000	1.2500	-0.0000	50.1681	-13.9762	-5.0329	72.3567	-12.3192	-13.2291	0.0000	78.7505	-11.9537	-8.7495	75.1877	-10.7946	16.1596	0.0000	-21.7689	2.3077	0.9328	97.1238	-17.2343	50.9742	3.8987	113.3395	-41.0880	-9.0243	88.6533	-18.9665	53.1050	9.9368	111.5020	-24.8559	3.3067	
4.5170	-7.8354	0.5814	-16.3867	0.0000	1.2500	-0.0000	52.7313	-14.1560	-4.1770	77.1878	-11.5896	-12.7175	0.0000	74.9687	-12.2862	-10.0012	70.7931	-11.1588	16.7722	-0.0000	-21.7670	2.3734	0.9916	97.0439	-17.1443	50.9603	3.8650	113.7207	-40.6405	-8.9147	88.2173	-19.4003	52.9700	9.9865	111.2534	-24.8965	3.2559	
4.5330	-7.6098	0.4519	-16.9122	0.0000	1.2500	-0.0000	55.4637	-14.3352	-3.4172	81.8633	-10.9909	-12.1081	0.0000	70.8241	-12.5591	-11.3384	66.2980	-11.4335	17.2285	0.0000	-21.7504	2.4046	1.0836	97.0360	-17.0369	50.9432	3.8150	114.1548	-40.1402	-8.7800	87.6721	-19.8860	52.8004	10.1182	111.0036	-24.9830	3.1668	
4.5500	-7.4505	0.3558	-17.4593	0.0000	1.2500	-0.0000	58.3133	-14.3915	-2.6411	86.1566	-10.1716	-11.6644	0.0000	66.6260	-12.7512	-12.6128	61.8422	-11.7404	17.2970	0.0000	-21.7105	2.4063	1.2058	97.0159	-16.9363	50.9292	3.8039	114.5304	-39.6959	-8.6395	87.1154	-20.3142	52.6222	10.2486	110.8020	-25.0613	3.0703	
4.5670	-7.3908	0.2961	-18.0386	0.0000	1.2500	-0.0000	61.3085	-14.2602	-1.8461	90.0160	-9.0332	-11.4511	-0.0000	62.3350	-12.8552	-13.7920	57.3389	-12.0070	16.6553	0.0000	-21.6344	2.3710	1.3653	96.9522	-16.8525	50.9330	3.8553	114.8097	-39.3615	-8.5051	86.5461	-20.6438	52.4306	10.3475	110.6661	-25.1161	2.9756	
